<?xml version="1.0" encoding="UTF-8" standalone="no"?>
<!-- Created with Inkscape (http://www.inkscape.org/) -->

<svg
   width="127.896mm"
   height="84.644997mm"
   viewBox="0 0 127.89601 84.644996"
   version="1.1"
   id="svg1"
   xml:space="preserve"
   inkscape:version="1.4.3 (0d15f75, 2025-12-25)"
   sodipodi:docname="gcds-ext-map-anatomy-fr-new-edits.svg"
   xmlns:inkscape="http://www.inkscape.org/namespaces/inkscape"
   xmlns:sodipodi="http://sodipodi.sourceforge.net/DTD/sodipodi-0.dtd"
   xmlns="http://www.w3.org/2000/svg"
   xmlns:svg="http://www.w3.org/2000/svg"><sodipodi:namedview
     id="namedview1"
     pagecolor="#ffffff"
     bordercolor="#000000"
     borderopacity="0.25"
     inkscape:showpageshadow="2"
     inkscape:pageopacity="0.0"
     inkscape:pagecheckerboard="0"
     inkscape:deskcolor="#d1d1d1"
     inkscape:document-units="mm"
     inkscape:zoom="1.2849699"
     inkscape:cx="415.96305"
     inkscape:cy="230.7447"
     inkscape:window-width="1920"
     inkscape:window-height="1009"
     inkscape:window-x="1912"
     inkscape:window-y="-8"
     inkscape:window-maximized="1"
     inkscape:current-layer="layer1"
     showguides="false" /><defs
     id="defs1"><rect
       x="369.89886"
       y="57.446411"
       width="131.00584"
       height="30.824903"
       id="rect36" /><rect
       x="414.73508"
       y="51.841885"
       width="146.41829"
       height="49.039619"
       id="rect35" /><marker
       style="overflow:visible"
       id="marker18"
       refX="-0.5"
       refY="4"
       orient="auto"
       inkscape:stockid="Stop"
       markerWidth="1"
       markerHeight="3"
       viewBox="0 0 1 1"
       inkscape:isstock="true"
       inkscape:collect="always"
       preserveAspectRatio="none"><path
         style="fill:none;stroke:context-stroke;stroke-width:1"
         d="M 0,4 V -4"
         id="path18" /></marker><marker
       style="overflow:visible"
       id="Stop"
       refX="-0.5"
       refY="4"
       orient="auto"
       inkscape:stockid="Stop"
       markerWidth="1"
       markerHeight="3"
       viewBox="0 0 1 1"
       inkscape:isstock="true"
       inkscape:collect="always"
       preserveAspectRatio="none"
       markerUnits="strokeWidth"><path
         style="fill:none;stroke:context-stroke;stroke-width:1"
         d="M 0,4 V -4"
         id="path23" /></marker><rect
       x="490.04593"
       y="217.87604"
       width="18.564999"
       height="18.214716"
       id="rect11" /><inkscape:perspective
       sodipodi:type="inkscape:persp3d"
       inkscape:vp_x="0 : -63.855003 : 1"
       inkscape:vp_y="0 : 999.99989 : 0"
       inkscape:vp_z="209.99997 : -63.855003 : 1"
       inkscape:persp3d-origin="105.00001 : -113.35501 : 1"
       id="perspective2" /><rect
       x="490.04593"
       y="217.87604"
       width="18.564999"
       height="18.214716"
       id="rect11-1" /><rect
       x="490.04593"
       y="217.87604"
       width="18.564999"
       height="18.214716"
       id="rect11-1-2" /><rect
       x="490.04593"
       y="217.87604"
       width="18.564999"
       height="18.214716"
       id="rect11-1-2-5" /><clipPath
       id="clip11_162_19083"><rect
         width="48"
         height="24"
         fill="#ffffff"
         transform="translate(24,26)"
         id="rect31"
         x="0"
         y="0" /></clipPath><clipPath
       id="clip12_162_19083"><rect
         x="24"
         y="26"
         width="24"
         height="24"
         rx="12"
         fill="#ffffff"
         id="rect32" /></clipPath><clipPath
       id="clip10_162_19083"><rect
         x="24"
         y="57"
         width="24"
         height="24"
         rx="12"
         fill="#ffffff"
         id="rect30" /></clipPath><clipPath
       clipPathUnits="userSpaceOnUse"
       id="clipPath24"><rect
         width="48"
         height="24"
         fill="#ffffff"
         id="rect24"
         x="24"
         y="57"
         style="stroke-width:0.999999" /></clipPath><clipPath
       id="clip8_162_19083"><rect
         x="24"
         y="108"
         width="24"
         height="24"
         rx="12"
         fill="#ffffff"
         id="rect28" /></clipPath><clipPath
       clipPathUnits="userSpaceOnUse"
       id="clipPath25"><rect
         width="53"
         height="24"
         fill="#ffffff"
         id="rect25"
         x="24.000013"
         y="108"
         style="stroke-width:0.999999" /></clipPath><clipPath
       id="clip6_162_19083"><rect
         x="24"
         y="192"
         width="24"
         height="24"
         rx="12"
         fill="#ffffff"
         id="rect26" /></clipPath><clipPath
       id="clip5_162_19083"><rect
         x="267"
         y="107.5"
         width="24"
         height="24"
         rx="12"
         fill="#ffffff"
         id="rect25-3" /></clipPath><clipPath
       clipPathUnits="userSpaceOnUse"
       id="clipPath26"><rect
         width="81"
         height="24"
         fill="#ffffff"
         id="rect27"
         x="222"
         y="107.49999"
         style="stroke-width:0.999999" /></clipPath><clipPath
       clipPathUnits="userSpaceOnUse"
       id="clipPath27"><rect
         width="21.43125"
         height="6.3499999"
         fill="#ffffff"
         id="rect29"
         x="47.023952"
         y="94.990005"
         style="stroke-width:0.264583" /></clipPath><clipPath
       id="clip3_162_19083"><rect
         x="267"
         y="141"
         width="24"
         height="24"
         rx="12"
         fill="#ffffff"
         id="rect23" /></clipPath><clipPath
       clipPathUnits="userSpaceOnUse"
       id="clipPath29"><rect
         width="69"
         height="24"
         fill="#ffffff"
         id="rect33"
         x="222"
         y="141.00003"
         style="stroke-width:0.999999" /></clipPath><clipPath
       clipPathUnits="userSpaceOnUse"
       id="clipPath27-1"><rect
         width="21.43125"
         height="6.3499999"
         fill="#ffffff"
         id="rect29-8"
         x="47.023952"
         y="94.990005"
         style="stroke-width:0.264583" /></clipPath><rect
       x="490.04593"
       y="217.87604"
       width="18.564999"
       height="18.214716"
       id="rect11-1-2-3" /><clipPath
       clipPathUnits="userSpaceOnUse"
       id="clipPath25-3"><rect
         width="53"
         height="24"
         fill="#ffffff"
         id="rect25-1"
         x="24.000013"
         y="108"
         style="stroke-width:0.999999" /></clipPath></defs><g
     inkscape:label="Layer 1"
     inkscape:groupmode="layer"
     id="layer1"
     transform="translate(-40.236328,-40.498047)"
     style="display:inline"><path
       style="baseline-shift:baseline;display:inline;overflow:visible;opacity:1;vector-effect:none;enable-background:accumulate;stop-color:#000000;stop-opacity:1"
       d="m 43.944533,43.673049 c -0.292713,0 -0.533203,0.24049 -0.533203,0.533203 V 121.7844 c 0,0.29271 0.24049,0.5332 0.533203,0.5332 H 164.77463 c 0.29271,0 0.5332,-0.24049 0.5332,-0.5332 V 44.206252 c 0,-0.292713 -0.24049,-0.533203 -0.5332,-0.533203 z m 0,0.265625 H 164.77463 c 0.15049,0 0.26758,0.117091 0.26758,0.267578 V 121.7844 c 0,0.15048 -0.11709,0.26757 -0.26758,0.26757 H 43.944533 c -0.150487,0 -0.267578,-0.11709 -0.267578,-0.26757 V 44.206252 c 0,-0.150487 0.117091,-0.267578 0.267578,-0.267578 z"
       id="rect1" /><g
       id="g1"
       transform="matrix(0.34650081,0,0,0.32192556,154.21204,46.368165)"
       style="stroke-width:1.37953;stroke-dasharray:none"><path
         d="M 0,0 H 24 V 24 H 0 Z"
         fill="none"
         id="path1"
         style="stroke-width:1.37953;stroke-dasharray:none" /></g><g
       id="g8"
       transform="translate(3.1750001,3.1750001)"><path
         d="M 11.99,18.54 4.62,12.81 3,14.07 l 9,7 9,-7 -1.63,-1.27 z M 12,16 19.36,10.27 21,9 12,2 3,9 4.63,10.27 Z M 12,4.53 17.74,9 12,13.47 6.26,9 Z"
         id="path2"
         style="stroke-width:1.37953;stroke-dasharray:none"
         transform="matrix(0.34650082,0,0,0.32192555,151.03702,43.193163)" /><rect
         style="fill:none;stroke:#d4d4d4;stroke-width:0.065;stroke-linejoin:round;stroke-miterlimit:2.7;stroke-dasharray:none;stroke-opacity:1"
         id="rect2"
         width="7.4053397"
         height="7.274272"
         x="151.44902"
         y="43.186893"
         rx="0.69999999" /></g><g
       id="g12"
       transform="translate(-82.073018,-17.366124)"><rect
         style="display:inline;fill:none;stroke:#d4d4d4;stroke-width:0.065;stroke-linejoin:round;stroke-miterlimit:2.7;stroke-dasharray:none;stroke-opacity:1"
         id="rect2-1"
         width="7.4053397"
         height="7.274272"
         x="128.35542"
         y="63.72802"
         rx="0.69999999" /><text
         xml:space="preserve"
         transform="matrix(0.52027759,0,0,0.5341587,-125.45696,-52.823011)"
         id="text11"
         style="writing-mode:lr-tb;direction:ltr;white-space:pre;shape-inside:url(#rect11);display:inline;fill:#000000;fill-opacity:1;stroke:#0a0a0a;stroke-width:0.245669;stroke-linejoin:round;stroke-miterlimit:2.7;stroke-dasharray:none;stroke-opacity:1"><tspan
           x="490.04688"
           y="228.82492"
           id="tspan12">+</tspan></text></g><g
       id="g11"
       transform="translate(-99.535493,-8.5084169)"><rect
         style="display:inline;fill:none;stroke:#d4d4d4;stroke-width:0.065;stroke-linejoin:round;stroke-miterlimit:2.7;stroke-dasharray:none;stroke-opacity:1"
         id="rect2-1-7"
         width="7.4053397"
         height="7.274272"
         x="145.81792"
         y="62.209583"
         rx="0.69999999" /><text
         xml:space="preserve"
         transform="matrix(1.0280644,0,0,0.38664463,-357.08023,-21.151236)"
         id="text11-6"
         style="font-style:normal;font-variant:normal;font-weight:normal;font-stretch:normal;font-size:12px;font-family:sans-serif;-inkscape-font-specification:'sans-serif, Normal';font-variant-ligatures:normal;font-variant-caps:normal;font-variant-numeric:normal;font-variant-east-asian:normal;writing-mode:lr-tb;direction:ltr;white-space:pre;shape-inside:url(#rect11-1);display:inline;fill:#000000;fill-opacity:1;stroke:#0a0a0a;stroke-width:0.245669;stroke-linejoin:round;stroke-miterlimit:2.7;stroke-dasharray:none;stroke-opacity:1"><tspan
           x="490.04688"
           y="228.82492"
           id="tspan13">-</tspan></text></g><g
       id="g14"
       transform="translate(-104.56092,12.337379)"><rect
         style="display:inline;fill:none;stroke:#d4d4d4;stroke-width:0.065;stroke-linejoin:round;stroke-miterlimit:2.7;stroke-dasharray:none;stroke-opacity:1"
         id="rect2-1-7-2"
         width="7.4053397"
         height="7.274272"
         x="168.35968"
         y="63.309666"
         rx="0.69999999"
         transform="translate(-17.516339,-5.8208356)" /><text
         xml:space="preserve"
         transform="matrix(0.48082505,0,0,0.46768251,-83.791078,-43.920793)"
         id="text11-6-1"
         style="font-style:normal;font-variant:normal;font-weight:normal;font-stretch:normal;font-size:12px;font-family:sans-serif;-inkscape-font-specification:'sans-serif, Normal';font-variant-ligatures:normal;font-variant-caps:normal;font-variant-numeric:normal;font-variant-east-asian:normal;writing-mode:lr-tb;direction:ltr;white-space:pre;shape-inside:url(#rect11-1-2);display:inline;fill:#000000;fill-opacity:1;stroke:#0a0a0a;stroke-width:0.245669;stroke-linejoin:round;stroke-miterlimit:2.7;stroke-dasharray:none;stroke-opacity:1"><tspan
           x="490.04688"
           y="228.89154"
           id="tspan14">↺</tspan></text></g><g
       id="g14-1"
       transform="translate(-104.55913,4.2526542)"
       style="display:inline"
       inkscape:label="SearchButton"><rect
         style="display:inline;fill:none;stroke:#d4d4d4;stroke-width:0.065;stroke-linejoin:round;stroke-miterlimit:2.7;stroke-dasharray:none;stroke-opacity:1"
         id="rect2-1-7-2-1"
         width="7.4053397"
         height="7.274272"
         x="168.35968"
         y="63.309666"
         rx="0.69999999"
         transform="translate(-17.516339,-5.8208356)" /><g
         style="fill:currentColor"
         id="g2"
         transform="matrix(0.29641597,0,0,0.29641597,152.50835,59.025298)"><path
           d="m 6,0 c 3.31,0 6,2.69 6,6 0,1.3 -0.41,2.5 -1.11,3.48 l 3.82,3.81 c 0.39,0.39 0.39,1.03 0,1.42 -0.39,0.39 -1.03,0.39 -1.42,0 L 9.48,10.89 C 8.5,11.59 7.3,12 6,12 2.69,12 0,9.31 0,6 0,2.69 2.69,0 6,0 Z M 6,2 C 3.79,2 2,3.79 2,6 2,8.21 3.79,10 6,10 8.21,10 10,8.21 10,6 10,3.79 8.21,2 6,2 Z"
           id="path1-2" /></g></g><g
       id="g18"
       transform="translate(-82.019173,-0.57091543)"
       inkscape:label="ScaleControl"><path
         style="fill:#000000;fill-opacity:1;stroke:#0a0a0a;stroke-width:0.175586;stroke-linejoin:round;stroke-miterlimit:2.7;stroke-dasharray:none;stroke-opacity:1;marker-start:url(#marker18);marker-end:url(#Stop)"
         d="m 128.26908,119.03254 h 24.6114"
         id="path17" /><text
         xml:space="preserve"
         style="font-style:normal;font-variant:normal;font-weight:normal;font-stretch:normal;font-size:2.91392px;font-family:sans-serif;-inkscape-font-specification:'sans-serif, Normal';font-variant-ligatures:normal;font-variant-caps:normal;font-variant-numeric:normal;font-variant-east-asian:normal;writing-mode:lr-tb;direction:ltr;fill:#000000;fill-opacity:1;stroke:#0a0a0a;stroke-width:0.0635499;stroke-linejoin:round;stroke-miterlimit:2.7;stroke-dasharray:none;stroke-opacity:1"
         x="133.24068"
         y="116.05438"
         id="text18"
         transform="scale(0.98422011,1.0160329)"><tspan
           sodipodi:role="line"
           id="tspan18"
           style="stroke-width:0.0635499"
           x="133.24068"
           y="116.05438">30 km</tspan></text></g><g
       id="g20"
       transform="translate(-7.4605185,14.287503)"
       inkscape:label="FullscreenButton"><g
         id="g19"
         transform="translate(-49.662415,-12.6494)"><path
           id="a"
           d="m 104.99134,80.877371 v 1.5875 h 1.58751 v -0.529167 h -1.05834 v -1.058333 z"
           color="#000000"
           fill="#404040"
           style="stroke-width:0.264583" /><path
           id="b"
           d="m 109.22467,80.877371 v 1.5875 h -1.5875 v -0.529167 h 1.05833 v -1.058333 z"
           color="#000000"
           fill="#404040"
           style="stroke-width:0.264583" /><path
           id="d"
           d="m 104.99134,79.819038 v -1.5875 h 1.58751 v 0.529167 h -1.05834 v 1.058333 z"
           color="#000000"
           fill="#404040"
           style="stroke-width:0.264583" /><path
           id="c"
           d="m 109.22467,79.819038 v -1.5875 h -1.5875 v 0.529167 h 1.05833 v 1.058333 z"
           color="#000000"
           fill="#404040"
           style="stroke-width:0.264583" /></g><rect
         style="display:inline;fill:none;stroke:#d4d4d4;stroke-width:0.065;stroke-linejoin:round;stroke-miterlimit:2.7;stroke-dasharray:none;stroke-opacity:1"
         id="rect2-1-7-2-8"
         width="7.4053397"
         height="7.274272"
         x="53.74292"
         y="64.061668"
         rx="0.69999999" /></g><g
       id="g21"
       transform="translate(125.22279,79.19442)"><path
         fill="#000000"
         d="m 34.149167,28.148489 -2.299377,1.098789 c -0.265311,0.132313 -0.176871,0.535008 0.105019,0.535008 h 0.972814 v 1.012499 c 0,0.293394 0.386915,0.38544 0.514045,0.109302 l 1.055719,-2.393173 c 0.08844,-0.218608 -0.13818,-0.454471 -0.34822,-0.362425 z"
         id="path1-4"
         style="stroke-width:0.00563896" /><rect
         style="display:inline;fill:none;stroke:#d4d4d4;stroke-width:0.065;stroke-linejoin:round;stroke-miterlimit:2.7;stroke-dasharray:none;stroke-opacity:1"
         id="rect2-1-7-2-8-3"
         width="7.4053397"
         height="7.274272"
         x="29.401249"
         y="25.961666"
         rx="0.69999999" /></g><g
       style="fill:currentColor"
       id="g22"
       transform="matrix(0.24335053,0,0,0.22696703,155.4065,113.86355)"><path
         d="M 0,0 H 24 V 24 H 0 Z"
         fill="none"
         id="path1-19" /><path
         d="m 11,7 h 2 v 2 h -2 z m 0,4 h 2 v 6 H 11 Z M 12,2 C 6.48,2 2,6.48 2,12 2,17.52 6.48,22 12,22 17.52,22 22,17.52 22,12 22,6.48 17.52,2 12,2 Z m 0,18 C 7.59,20 4,16.41 4,12 4,7.59 7.59,4 12,4 c 4.41,0 8,3.59 8,8 0,4.41 -3.59,8 -8,8 z"
         id="path2-8" /></g><g
       clip-path="url(#clip11_162_19083)"
       id="g19-2"
       transform="matrix(0.26458333,0,0,0.26458333,135.60155,39.451196)"><rect
         x="24"
         y="38"
         width="48"
         height="1"
         fill="#c54600"
         id="rect17" /><g
         clip-path="url(#clip12_162_19083)"
         id="g18-8"><rect
           x="24"
           y="26"
           width="24"
           height="24"
           rx="12"
           fill="#c54600"
           id="rect18" /><path
           d="M 37.8302,32.8182 V 43 h -2.1527 v -8.1385 h -0.0597 l -2.3317,1.4617 v -1.9091 l 2.5206,-1.5959 z"
           fill="#ffffff"
           id="path18-6" /></g></g><g
       id="g24"
       transform="translate(3.1750001,4.2333335)"><rect
         x="50.752811"
         y="50.366547"
         width="12.7"
         height="0.26458332"
         fill="#c54600"
         id="rect15"
         style="stroke-width:0.264583" /><g
         clip-path="url(#clipPath24)"
         id="g16"
         transform="matrix(0.26458333,0,0,0.26458333,51.811044,32.110296)"><rect
           x="24"
           y="57"
           width="24"
           height="24"
           rx="12"
           fill="#c54600"
           id="rect16" /><path
           d="m 32.4161,74 v -1.5511 l 3.6243,-3.3559 c 0.3082,-0.2983 0.5668,-0.5667 0.7756,-0.8054 0.2121,-0.2386 0.3728,-0.4723 0.4822,-0.701 0.1094,-0.232 0.1641,-0.4822 0.1641,-0.7507 0,-0.2983 -0.068,-0.5551 -0.2039,-0.7706 -0.1359,-0.2187 -0.3215,-0.3861 -0.5568,-0.5021 -0.2353,-0.1193 -0.5021,-0.179 -0.8004,-0.179 -0.3116,0 -0.5833,0.063 -0.8154,0.189 -0.232,0.1259 -0.4109,0.3065 -0.5369,0.5419 -0.1259,0.2353 -0.1889,0.5153 -0.1889,0.8402 h -2.0433 c 0,-0.6662 0.1508,-1.2446 0.4524,-1.7351 0.3016,-0.4906 0.7242,-0.8701 1.2677,-1.1385 0.5436,-0.2685 1.17,-0.4027 1.8793,-0.4027 0.7292,0 1.3639,0.1292 1.9041,0.3878 0.5436,0.2552 0.9662,0.6098 1.2678,1.0639 0.3016,0.4541 0.4524,0.9744 0.4524,1.5611 0,0.3844 -0.0762,0.7639 -0.2287,1.1385 -0.1491,0.3745 -0.416,0.7904 -0.8004,1.2478 -0.3845,0.4541 -0.9264,0.9993 -1.6257,1.6357 l -1.4865,1.4567 v 0.0696 h 4.2755 V 74 Z"
           fill="#ffffff"
           id="path16" /></g></g><rect
       x="53.855091"
       y="73.47123"
       width="13.564178"
       height="0.26458332"
       fill="#c54600"
       id="rect13"
       style="stroke-width:0.260219" /><g
       id="g6"><rect
         x="53.648705"
         y="65.250778"
         width="13.564178"
         height="0.26458332"
         fill="#c54600"
         id="rect13-0"
         style="display:inline;stroke-width:0.260219" /><g
         clip-path="url(#clipPath25)"
         id="g14-0"
         transform="matrix(0.26458333,0,0,0.26458333,54.986046,33.78372)"><rect
           x="24"
           y="108"
           width="24"
           height="24"
           rx="12"
           fill="#c54600"
           id="rect14" /><path
           d="m 35.9745,125.139 c -0.7424,0 -1.4036,-0.127 -1.9836,-0.383 -0.5767,-0.258 -1.0325,-0.613 -1.3672,-1.064 -0.3315,-0.454 -0.5022,-0.977 -0.5121,-1.571 h 2.1676 c 0.0133,0.249 0.0945,0.468 0.2436,0.657 0.1525,0.185 0.3547,0.329 0.6066,0.432 0.2518,0.103 0.5352,0.154 0.8501,0.154 0.3281,0 0.6181,-0.058 0.87,-0.174 0.2519,-0.116 0.4491,-0.276 0.5916,-0.482 0.1426,-0.205 0.2138,-0.442 0.2138,-0.711 0,-0.272 -0.0762,-0.512 -0.2287,-0.721 -0.1491,-0.212 -0.3646,-0.378 -0.6463,-0.497 C 36.5015,120.66 36.1701,120.6 35.7856,120.6 H 34.836 v -1.581 h 0.9496 c 0.3248,0 0.6115,-0.056 0.8601,-0.169 0.2519,-0.113 0.4474,-0.268 0.5866,-0.467 0.1392,-0.202 0.2088,-0.438 0.2088,-0.706 0,-0.255 -0.0613,-0.479 -0.1839,-0.671 -0.1193,-0.196 -0.2884,-0.348 -0.5071,-0.458 -0.2154,-0.109 -0.4673,-0.164 -0.7557,-0.164 -0.2917,0 -0.5585,0.053 -0.8004,0.159 -0.242,0.103 -0.4359,0.251 -0.5817,0.443 -0.1458,0.192 -0.2237,0.417 -0.2337,0.676 h -2.0632 c 0.01,-0.587 0.1773,-1.104 0.5022,-1.551 0.3248,-0.448 0.7623,-0.797 1.3125,-1.049 0.5535,-0.255 1.1782,-0.383 1.8743,-0.383 0.7026,0 1.3174,0.128 1.8444,0.383 0.527,0.255 0.9363,0.6 1.228,1.034 0.295,0.431 0.4408,0.915 0.4375,1.452 0.0033,0.57 -0.174,1.045 -0.532,1.426 -0.3546,0.382 -0.817,0.624 -1.387,0.726 v 0.08 c 0.749,0.096 1.3191,0.356 1.7102,0.78 0.3944,0.421 0.5899,0.948 0.5866,1.581 0.0033,0.58 -0.164,1.096 -0.5021,1.547 -0.3347,0.45 -0.7971,0.805 -1.3871,1.063 -0.5899,0.259 -1.2661,0.388 -2.0284,0.388 z"
           fill="#ffffff"
           id="path14" /></g></g><g
       clip-path="url(#clipPath25-3)"
       id="g14-0-6"
       transform="matrix(0.26458333,0,0,0.26458333,55.186939,41.605642)"
       style="display:inline"><rect
         x="24"
         y="108"
         width="24"
         height="24"
         rx="12"
         fill="#c54600"
         id="rect14-5" /></g><rect
       x="53.881741"
       y="81.854027"
       width="12.008495"
       height="0.26458332"
       fill="#c54600"
       id="rect11-6"
       style="stroke-width:0.230117" /><g
       clip-path="url(#clip6_162_19083)"
       id="g12-1"
       transform="matrix(0.26458333,0,0,0.26458333,54.986048,28.135039)"><rect
         x="24"
         y="192"
         width="24"
         height="24"
         rx="12"
         fill="#c54600"
         id="rect12" /></g><rect
       x="40.67395"
       y="98.165009"
       width="21.43125"
       height="0.26458332"
       fill="#c54600"
       id="rect9"
       style="stroke-width:0.264583"
       clip-path="url(#clipPath27)"
       transform="matrix(0.00877796,-0.82219678,0.99997204,0.01099705,-38.964792,150.62811)" /><path
       d="M 63.64814,74.126779 V 73.67831 l 1.124664,-1.771914 h 0.386741 v 0.620977 h -0.228891 l -0.709004,1.122098 v 0.0209 h 1.598216 v 0.456406 z m 1.293045,0.473604 v -0.610394 l 0.01053,-0.198702 v -1.884891 h 0.534035 v 2.693987 z"
       fill="#ffffff"
       id="path12"
       style="display:inline;stroke-width:0.264583" /><rect
       x="40.67395"
       y="98.165009"
       width="21.43125"
       height="0.26458332"
       fill="#c54600"
       id="rect9-6"
       style="stroke-width:0.264583"
       clip-path="url(#clipPath27-1)"
       transform="matrix(-0.87734933,-0.00877796,0.01173473,-0.99997204,204.86633,182.2698)" /><g
       clip-path="url(#clipPath26)"
       id="g10"
       transform="matrix(0.26458333,0,0,0.26458333,-14.006611,69.027207)"><rect
         x="267"
         y="107.5"
         width="24"
         height="24"
         rx="12"
         fill="#c54600"
         id="rect10" /></g><g
       id="g33"
       transform="translate(-1.2813105,-22.445495)"><rect
         x="143.73572"
         y="131.09085"
         width="11.90625"
         height="0.26458332"
         fill="#c54600"
         id="rect7"
         style="stroke-width:0.264583" /><g
         clip-path="url(#clipPath29)"
         id="g8-6"
         transform="matrix(0.26458333,0,0,0.26458333,69.123422,90.609604)"><rect
           x="267"
           y="141"
           width="24"
           height="24"
           rx="12"
           fill="#c54600"
           id="rect8" /></g></g><rect
       x="142.65042"
       y="116.63203"
       width="12.922027"
       height="0.26458332"
       fill="#c54600"
       id="rect7-8"
       style="stroke-width:0.275638" /><g
       id="g34"
       transform="translate(-15.305581,-19.892959)"><rect
         x="153.9875"
         y="133.34999"
         width="6.3499999"
         height="6.3499999"
         rx="3.175"
         fill="#c54600"
         id="rect8-2"
         style="stroke-width:0.264583" /></g><g
       id="g35"
       transform="translate(-27.552358,-45.592537)"><rect
         x="173.03751"
         y="125.94167"
         width="6.3499999"
         height="6.3499999"
         rx="3.175"
         fill="#c54600"
         id="rect8-2-4"
         style="stroke-width:0.264583" /><text
         xml:space="preserve"
         style="font-style:normal;font-variant:normal;font-weight:normal;font-stretch:normal;font-size:3.51216px;font-family:sans-serif;-inkscape-font-specification:'sans-serif, Normal';font-variant-ligatures:normal;font-variant-caps:normal;font-variant-numeric:normal;font-variant-east-asian:normal;writing-mode:lr-tb;direction:ltr;fill:#fffcfc;fill-opacity:1;stroke:#fefefe;stroke-width:0.277;stroke-linejoin:round;stroke-miterlimit:2.7;stroke-dasharray:none;stroke-opacity:1"
         x="167.05779"
         y="136.63211"
         id="text33-0"
         transform="scale(1.0478464,0.95433833)"><tspan
           sodipodi:role="line"
           id="tspan10">9</tspan></text></g><text
       xml:space="preserve"
       style="font-style:normal;font-variant:normal;font-weight:normal;font-stretch:normal;font-size:4.93889px;font-family:Arial;-inkscape-font-specification:'Arial, Normal';font-variant-ligatures:normal;font-variant-caps:normal;font-variant-numeric:normal;font-variant-east-asian:normal;writing-mode:lr-tb;direction:ltr;fill:#000000;fill-opacity:1;stroke:none;stroke-width:0;stroke-linejoin:round;stroke-miterlimit:2.7;stroke-dasharray:none;stroke-opacity:1"
       x="93.023926"
       y="50.884781"
       id="text37"><tspan
         sodipodi:role="line"
         id="tspan37"
         style="font-style:normal;font-variant:normal;font-weight:normal;font-stretch:normal;font-size:4.93889px;font-family:Arial;-inkscape-font-specification:'Arial, Normal';font-variant-ligatures:normal;font-variant-caps:normal;font-variant-numeric:normal;font-variant-east-asian:normal;stroke-width:0"
         x="93.023926"
         y="50.884781">Contrôle des couches</tspan></text><text
       xml:space="preserve"
       style="font-style:normal;font-variant:normal;font-weight:normal;font-stretch:normal;font-size:4.93889px;font-family:Arial;-inkscape-font-specification:'Arial, Normal';font-variant-ligatures:normal;font-variant-caps:normal;font-variant-numeric:normal;font-variant-east-asian:normal;writing-mode:lr-tb;direction:ltr;fill:#000000;fill-opacity:1;stroke:none;stroke-width:0;stroke-linejoin:round;stroke-miterlimit:2.7;stroke-dasharray:none;stroke-opacity:1"
       x="70.55719"
       y="56.438702"
       id="text37-5"><tspan
         sodipodi:role="line"
         id="tspan38"
         x="70.55719"
         y="56.438702">Contrôle du zoom</tspan></text><text
       xml:space="preserve"
       style="font-style:normal;font-variant:normal;font-weight:normal;font-stretch:normal;font-size:4.93889px;font-family:Arial;-inkscape-font-specification:'Arial, Normal';font-variant-ligatures:normal;font-variant-caps:normal;font-variant-numeric:normal;font-variant-east-asian:normal;writing-mode:lr-tb;direction:ltr;fill:#000000;fill-opacity:1;stroke:none;stroke-width:0;stroke-linejoin:round;stroke-miterlimit:2.7;stroke-dasharray:none;stroke-opacity:1"
       x="70.020767"
       y="75.723572"
       id="text37-3"><tspan
         sodipodi:role="line"
         id="tspan39"
         x="70.020767"
         y="75.723572">Bouton de rechargement</tspan></text><text
       xml:space="preserve"
       style="font-style:normal;font-variant:normal;font-weight:normal;font-stretch:normal;font-size:4.93889px;font-family:Arial;-inkscape-font-specification:'Arial, Normal';font-variant-ligatures:normal;font-variant-caps:normal;font-variant-numeric:normal;font-variant-east-asian:normal;writing-mode:lr-tb;direction:ltr;display:inline;fill:#000000;fill-opacity:1;stroke:none;stroke-width:0;stroke-linejoin:round;stroke-miterlimit:2.7;stroke-dasharray:none;stroke-opacity:1"
       x="70.465912"
       y="67.358246"
       id="text37-3-4"><tspan
         sodipodi:role="line"
         id="tspan11">Contrôle de recherche</tspan></text><text
       xml:space="preserve"
       style="font-style:normal;font-variant:normal;font-weight:normal;font-stretch:normal;font-size:3.51216px;font-family:sans-serif;-inkscape-font-specification:'sans-serif, Normal';font-variant-ligatures:normal;font-variant-caps:normal;font-variant-numeric:normal;font-variant-east-asian:normal;writing-mode:lr-tb;direction:ltr;display:inline;fill:#fffcfc;fill-opacity:1;stroke:#fefefe;stroke-width:0.277;stroke-linejoin:round;stroke-miterlimit:2.7;stroke-dasharray:none;stroke-opacity:1"
       x="134.21335"
       y="115.15911"
       id="text33"
       transform="scale(1.0478464,0.95433834)"><tspan
         sodipodi:role="line"
         id="tspan33"
         style="fill:#fffcfc;fill-opacity:1;stroke:#fefefe;stroke-width:0.277;stroke-dasharray:none;stroke-opacity:1"
         x="134.21335"
         y="115.15911">7</tspan></text><text
       xml:space="preserve"
       style="font-style:normal;font-variant:normal;font-weight:normal;font-stretch:normal;font-size:4.93889px;font-family:Arial;-inkscape-font-specification:'Arial, Normal';font-variant-ligatures:normal;font-variant-caps:normal;font-variant-numeric:normal;font-variant-east-asian:normal;writing-mode:lr-tb;direction:ltr;display:none;fill:#000000;fill-opacity:1;stroke:none;stroke-width:0;stroke-linejoin:round;stroke-miterlimit:2.7;stroke-dasharray:none;stroke-opacity:1"
       x="69.938545"
       y="83.931641"
       id="text37-6"><tspan
         sodipodi:role="line"
         id="tspan5">Bouton plein </tspan><tspan
         sodipodi:role="line"
         id="tspan6">écran</tspan></text><text
       xml:space="preserve"
       style="font-style:normal;font-variant:normal;font-weight:normal;font-stretch:normal;font-size:4.93889px;font-family:Arial;-inkscape-font-specification:'Arial, Normal';font-variant-ligatures:normal;font-variant-caps:normal;font-variant-numeric:normal;font-variant-east-asian:normal;writing-mode:lr-tb;direction:ltr;fill:#000000;fill-opacity:1;stroke:none;stroke-width:0;stroke-linejoin:round;stroke-miterlimit:2.7;stroke-dasharray:none;stroke-opacity:1"
       x="98.654083"
       y="84.955574"
       id="text37-2"><tspan
         sodipodi:role="line"
         id="tspan41"
         x="98.654083"
         y="84.955574">Étendue de la carte / </tspan><tspan
         sodipodi:role="line"
         x="98.654083"
         y="91.129189"
         id="tspan4">fenêtre d'affichage</tspan></text><text
       xml:space="preserve"
       style="font-style:normal;font-variant:normal;font-weight:normal;font-stretch:normal;font-size:4.93889px;font-family:Arial;-inkscape-font-specification:'Arial, Normal';font-variant-ligatures:normal;font-variant-caps:normal;font-variant-numeric:normal;font-variant-east-asian:normal;writing-mode:lr-tb;direction:ltr;fill:#000000;fill-opacity:1;stroke:none;stroke-width:0;stroke-linejoin:round;stroke-miterlimit:2.7;stroke-dasharray:none;stroke-opacity:1"
       x="78.073242"
       y="109.71732"
       id="text37-0"><tspan
         sodipodi:role="line"
         id="tspan43"
         x="78.073242"
         y="109.71732">Contrôle de géolocalisation</tspan></text><text
       xml:space="preserve"
       style="font-style:normal;font-variant:normal;font-weight:normal;font-stretch:normal;font-size:4.93889px;font-family:Arial;-inkscape-font-specification:'Arial, Normal';font-variant-ligatures:normal;font-variant-caps:normal;font-variant-numeric:normal;font-variant-east-asian:normal;writing-mode:lr-tb;direction:ltr;fill:#000000;fill-opacity:1;stroke:none;stroke-width:0;stroke-linejoin:round;stroke-miterlimit:2.7;stroke-dasharray:none;stroke-opacity:1"
       x="91.961464"
       y="118.58311"
       id="text37-0-1"><tspan
         sodipodi:role="line"
         id="tspan44"
         x="91.961464"
         y="118.58311">Contrôle d'attribution</tspan></text><text
       xml:space="preserve"
       style="font-style:normal;font-variant:normal;font-weight:normal;font-stretch:normal;font-size:4.93889px;font-family:Arial;-inkscape-font-specification:'Arial, Normal';font-variant-ligatures:normal;font-variant-caps:normal;font-variant-numeric:normal;font-variant-east-asian:normal;writing-mode:lr-tb;direction:ltr;fill:#000000;fill-opacity:1;stroke:none;stroke-width:0;stroke-linejoin:round;stroke-miterlimit:2.7;stroke-dasharray:none;stroke-opacity:1"
       x="64.349396"
       y="102.64831"
       id="text37-33"><tspan
         sodipodi:role="line"
         id="tspan42"
         x="64.349396"
         y="102.64831">Contrôle d'échelle</tspan></text><text
       xml:space="preserve"
       style="font-style:normal;font-variant:normal;font-weight:normal;font-stretch:normal;font-size:4.93889px;font-family:Arial;-inkscape-font-specification:'Arial, Normal';font-variant-ligatures:normal;font-variant-caps:normal;font-variant-numeric:normal;font-variant-east-asian:normal;writing-mode:lr-tb;direction:ltr;display:inline;fill:#000000;fill-opacity:1;stroke:none;stroke-width:0;stroke-linejoin:round;stroke-miterlimit:2.7;stroke-dasharray:none;stroke-opacity:1"
       x="69.543167"
       y="84.375084"
       id="text37-6-1"><tspan
         sodipodi:role="line"
         id="tspan7"
         x="69.543167"
         y="84.375084">Bouton plein</tspan><tspan
         sodipodi:role="line"
         id="tspan8"
         x="69.543167"
         y="90.548698">écran</tspan></text><path
       d="m 64.590138,83.669768 c -0.185738,0 -0.351632,-0.03413 -0.497152,-0.102659 -0.144727,-0.06826 -0.259557,-0.162454 -0.344752,-0.282575 -0.08493,-0.120385 -0.129117,-0.257968 -0.132821,-0.413279 h 0.55245 c 0.0063,0.104511 0.05001,0.189177 0.131762,0.254 0.08149,0.06482 0.178329,0.09737 0.290513,0.09737 0.08943,0 0.168539,-0.01984 0.236802,-0.05927 0.06932,-0.04022 0.123296,-0.09604 0.161925,-0.166952 0.03942,-0.07197 0.059,-0.154517 0.059,-0.247385 0,-0.09472 -0.02011,-0.178065 -0.06033,-0.250032 -0.03942,-0.0717 -0.09446,-0.127793 -0.164571,-0.168275 -0.07012,-0.04022 -0.150283,-0.06085 -0.240771,-0.06191 -0.07885,0 -0.155575,0.0164 -0.230187,0.04868 -0.07355,0.03254 -0.130969,0.07673 -0.172244,0.133086 l -0.506413,-0.09075 0.12753,-1.420813 h 1.647031 v 0.465667 h -1.177396 l -0.06958,0.674952 h 0.01561 c 0.04736,-0.06667 0.118798,-0.121973 0.214577,-0.165894 0.09552,-0.04392 0.202406,-0.06562 0.32094,-0.06562 0.162189,0 0.306916,0.0381 0.433916,0.1143 0.127265,0.0762 0.227807,0.18124 0.301361,0.314325 0.07355,0.132557 0.110066,0.284957 0.109273,0.45773 7.93e-4,0.181504 -0.04127,0.3429 -0.126471,0.484187 -0.08414,0.140229 -0.202142,0.250825 -0.353748,0.331523 -0.150813,0.07964 -0.326231,0.119592 -0.526256,0.119592 z"
       fill="#ffffff"
       id="path10"
       style="display:inline;stroke-width:0.264583" /><path
       d="m 59.849123,102.04605 c -0.13864,-8e-4 -0.27225,-0.0241 -0.4011,-0.0696 -0.12806,-0.0458 -0.24316,-0.11985 -0.34476,-0.22225 -0.10186,-0.10266 -0.18229,-0.23865 -0.24209,-0.40798 -0.0587,-0.16907 -0.0881,-0.37704 -0.0881,-0.62336 8e-4,-0.22622 0.0267,-0.42836 0.0775,-0.60644 0.0519,-0.178862 0.12541,-0.330732 0.22119,-0.455079 0.0963,-0.12462 0.21167,-0.21934 0.34581,-0.28416 0.13414,-0.0659 0.28469,-0.0987 0.45111,-0.0987 0.17992,0 0.33867,0.0352 0.47625,0.1053 0.13785,0.0693 0.24818,0.16351 0.33153,0.28284 0.0841,0.119057 0.13493,0.252937 0.15266,0.401109 h -0.56171 c -0.022,-0.0939 -0.068,-0.167482 -0.13811,-0.220932 -0.0701,-0.0534 -0.1569,-0.0804 -0.26062,-0.0804 -0.17515,0 -0.3085,0.0765 -0.39978,0.228855 -0.0902,0.152677 -0.13626,0.360117 -0.13811,0.622317 h 0.0185 c 0.0402,-0.0799 0.0947,-0.14763 0.16298,-0.20399 0.0693,-0.0569 0.1479,-0.10028 0.23548,-0.13018 0.0886,-0.0307 0.18203,-0.046 0.28019,-0.046 0.15955,0 0.30163,0.0378 0.42625,0.11323 0.12435,0.0746 0.22278,0.177 0.29448,0.30771 0.072,0.1307 0.10795,0.28019 0.10795,0.44847 0,0.18256 -0.0426,0.34475 -0.12753,0.48683 -0.0841,0.14208 -0.20214,0.25347 -0.35401,0.33417 -0.15082,0.0796 -0.32597,0.11933 -0.526,0.11827 z m -0.003,-0.44715 c 0.0876,0 0.16616,-0.0212 0.23548,-0.0632 0.0693,-0.0421 0.12356,-0.099 0.16298,-0.17092 0.0394,-0.072 0.0593,-0.15267 0.0593,-0.2421 0,-0.0894 -0.0198,-0.1696 -0.0593,-0.24077 -0.0386,-0.0709 -0.0921,-0.12753 -0.16034,-0.1696 -0.0685,-0.0421 -0.14658,-0.0632 -0.23415,-0.0632 -0.0659,0 -0.12674,0.0124 -0.18283,0.037 -0.0553,0.0243 -0.10398,0.0587 -0.14605,0.10239 -0.0413,0.0439 -0.0735,0.0947 -0.0974,0.15267 -0.0235,0.0571 -0.0354,0.118 -0.0354,0.18283 0,0.0868 0.0196,0.16615 0.0593,0.23812 0.0402,0.072 0.0945,0.12938 0.16298,0.17224 0.0693,0.0431 0.14764,0.0646 0.23548,0.0646 z"
       fill="#ffffff"
       id="path8"
       style="display:inline;stroke-width:0.264583" /><text
       xml:space="preserve"
       style="font-style:normal;font-variant:normal;font-weight:bold;font-stretch:normal;font-size:4.58611px;font-family:Arial;-inkscape-font-specification:'Arial, Bold';font-variant-ligatures:normal;font-variant-caps:normal;font-variant-numeric:normal;font-variant-east-asian:normal;writing-mode:lr-tb;direction:ltr;fill:#ffffff;stroke-width:0;stroke-linejoin:round;stroke-miterlimit:2.7"
       x="140.62396"
       y="118.33053"
       id="text9"><tspan
         sodipodi:role="line"
         id="tspan9"
         style="font-style:normal;font-variant:normal;font-weight:bold;font-stretch:normal;font-size:4.58611px;font-family:Arial;-inkscape-font-specification:'Arial, Bold';font-variant-ligatures:normal;font-variant-caps:normal;font-variant-numeric:normal;font-variant-east-asian:normal;fill:#ffffff;stroke-width:0"
         x="140.62396"
         y="118.33053">8</tspan></text></g></svg>
